<svg xmlns="http://www.w3.org/2000/svg" width="53.171" height="15" viewBox="0 0 53.171 15">
  <g id="Group_1" data-name="Group 1" transform="translate(-220 -220)">
    <path id="Path_1" data-name="Path 1" d="M224.193,231.824c0,.82.16,2.237,1.3,2.237,1.238,0,1.637-1.378,1.637-4.813,0-2.138-.319-3.516-1.377-3.516a1.987,1.987,0,0,0-1.559,1.019Zm0-6.451a3.839,3.839,0,0,1,2.5-1.079c1.957,0,3.716,1.918,3.716,4.994,0,3.814-2.617,5.712-4.755,5.712a3.7,3.7,0,0,1-2.416-.939L221.6,235h-.48V221.618c0-.959-.519-.979-1.117-1V220h4.193Z"/>
    <path id="Path_2" data-name="Path 2" d="M235.458,226.072c.5-.719,1.238-1.778,2.437-1.778a1.479,1.479,0,0,1,1.438,1.638,1.447,1.447,0,0,1-1.278,1.6,1.517,1.517,0,0,1-1.039-.479,1.085,1.085,0,0,0-.6-.32c-.539,0-.959.959-.959,2.017v4.335c0,.7.28.978,1,.978h.419v.62h-5.732v-.62c.639,0,1.238,0,1.238-.978V227.11c0-1.8-.3-1.837-1.119-1.877v-.619h4.195Z"/>
    <path id="Path_3" data-name="Path 3" d="M243.865,224.614v7.65a1.162,1.162,0,0,0,1.078,1.258,2.681,2.681,0,0,0,1.719-.939v-6.431a.835.835,0,0,0-.959-.918h-.3v-.62h4.334v8.229a.83.83,0,0,0,.34.64.707.707,0,0,0,.419.139v.639l-3.835.739v-1.219a4.687,4.687,0,0,1-3,1.219c-1.857,0-2.875-1.2-2.875-3.235v-5.733c0-.659-.5-.739-.76-.8v-.62Z"/>
    <path id="Path_4" data-name="Path 4" d="M261.664,233.1c0,.16,0,.96.758.96v.618h-4.813v-.618c.34,0,.978,0,.978-.96v-5.691c0-.961-.218-1.639-1.038-1.639-.619,0-1.039.359-1.718,1.158V233.1c0,.8.42.96.979.96v.618H251.5v-.618c.659,0,1.258,0,1.258-.96v-6.511c0-1.318-.718-1.338-1.118-1.357v-.62h4.194v1a3.968,3.968,0,0,1,2.976-1.318c1.9,0,2.857,1.2,2.857,3.056Z"/>
    <path id="Path_5" data-name="Path 5" d="M266.359,229.867c0,3.6.8,4.214,1.757,4.214,1.259,0,1.779-1,1.779-4.753,0-2.417-.341-4.115-1.678-4.115-1.559,0-1.858,1.718-1.858,4.654m6.812-.22A5.188,5.188,0,0,1,268.116,235a5.1,5.1,0,0,1-5.033-5.373,5.157,5.157,0,0,1,5.134-5.333,5.05,5.05,0,0,1,4.954,5.353"/>
  </g>
</svg>
